# xmcd
#
# Track frame offsets:
#	150
#	26059
#	50988
#	73214
#	92055
#	114936
#	138276
#	161028
#	176610
#	205246
#
# Disc length: 3327 seconds
#
# Revision: 2912615053
# Processed by: cddbd v1.5.2PL0 Copyright (c) Steve Scherf et al.
# Submitted via: EZCDAudioConverter 8.1.0.1
#
DISCID=910cfd0a
DTITLE=Lucinda Williams - Down Where The Spirit Meets The Bone
DYEAR=2014
DGENRE=Country
TTITLE0=Something Wicked This Way Comes
TTITLE1=Big Mess
TTITLE2=When I Look At The World
TTITLE3=Walk On (From "Rick And The Flash" Soundtrack)
TTITLE4=Temporary Nature (Of Any Precious Thing)
TTITLE5=Everything But The Truth
TTITLE6=This Old Heartache
TTITLE7=Stowaway In Your Heart
TTITLE8=One More Day
TTITLE9=Magnolia
EXTD=
EXTT0=
EXTT1=
EXTT2=
EXTT3=
EXTT4=
EXTT5=
EXTT6=
EXTT7=
EXTT8=
EXTT9=
PLAYORDER=
